<svg xmlns="http://www.w3.org/2000/svg" width="299.989" height="78.258" viewBox="0 0 115 30"><defs><style>.cls-1{fill:#333;fill-rule:evenodd}</style></defs><path id="Rush." class="cls-1" d="M27.031 26.758v-.9a1.959 1.959 0 0 1-1.584-.792l-7.163-10.151a8.753 8.753 0 0 0 4.032-2.052 5.929 5.929 0 0 0 1.62-4.248c0-4.139-3.636-6.191-10.655-6.191H2.194v.9c2.664.18 3.168.792 3.168 3.6v15.514c0 2.844-.36 3.1-3.168 3.419v.9H14.36v-.9c-2.808-.36-3.168-.684-3.168-3.312v-7.054H12.2l7.451 11.267h7.379zM11.193 5.269c0-1.188.5-1.62 1.908-1.62 3.348 0 4.679 1.512 4.679 5.327 0 4.391-1.872 5.327-6.587 5.363v-9.07zM51.4 2.425h-7.881v.9c2.664.216 3.492.936 3.492 3.564v10.8c0 5.327-2.124 7.991-6.335 7.991-3.492 0-5.255-2.268-5.255-7.271V6.96c0-2.952.612-3.42 3.419-3.636v-.9H26.745v.9c2.52.252 2.952.54 2.952 3.456v11.663c0 3.491.828 5.435 2.88 7.055a10.6 10.6 0 0 0 6.659 1.944 10.886 10.886 0 0 0 6.623-1.98c1.764-1.4 2.736-4.175 2.736-7.775V6.384c0-2.124.5-2.7 2.808-3.06v-.9zM69.583 9.7V1.849H68.5c-.252.972-.5 1.224-1.152 1.224a5.283 5.283 0 0 1-1.512-.36 11.187 11.187 0 0 0-4.212-.828c-4.9 0-7.883 2.664-7.883 7.235 0 3.636 2.088 5.615 6.155 7.559a33.327 33.327 0 0 1 4.391 2.34 3.987 3.987 0 0 1 2.052 3.168c0 2.484-1.764 4.068-4.535 4.068a6.344 6.344 0 0 1-5.183-2.592 11.883 11.883 0 0 1-2.16-5.147h-1.04v8.927h1.044c.216-.936.5-1.224 1.08-1.224a5.713 5.713 0 0 1 1.476.36 13.341 13.341 0 0 0 4.679.864c5.327 0 8.927-3.132 8.927-7.667A7.279 7.279 0 0 0 66.7 13.44c-1.836-1.008-3.563-1.836-5.327-2.772-2.88-1.512-3.707-2.34-3.707-4.1C57.668 4.513 59.144 3 61.628 3a6.1 6.1 0 0 1 4.427 2.016 9.935 9.935 0 0 1 2.52 4.684h1.008zM99.5 26.758v-.9c-2.592-.324-3.168-.72-3.168-2.628V5.988c0-1.944.72-2.484 3.168-2.664v-.9H87.3v.9c2.52.18 3.2.648 3.2 2.664v7.343h-8.676V5.988c0-2.016.684-2.484 3.2-2.664v-.9H72.933v.9c2.412.216 3.06.684 3.06 2.664V23.23c0 1.908-.54 2.3-3.06 2.628v.9h12.094v-.9c-2.628-.288-3.2-.72-3.2-2.628v-8.207H90.5v8.207c0 1.836-.576 2.34-3.2 2.628v.9h12.2zm13.783 0v-7.236h-7.236v7.236h7.236z"/></svg>