<svg xmlns="http://www.w3.org/2000/svg" viewBox="0 0 887.39 227.989"><defs><style>.cls-1,.cls-2{fill:#3498db;fill-rule:evenodd}.cls-2{fill:#fff}.cls-3{fill:#333}</style></defs><title>Artboard 2</title><g id="Layer_3" data-name="Layer 3"><path class="cls-1" d="M217.3 107.041a13.6 13.6 0 0 0-2.207-2.873l-45.325-45.331-45.683-45.678a13.933 13.933 0 0 0-19.65 0L38.462 79.128l-25.039 25.04a13.928 13.928 0 0 0-3.1 14.9 13.765 13.765 0 0 0 3.1 4.755l24.816 24.817 66.2 66.192a13.933 13.933 0 0 0 19.65 0l51.577-51.575 39.434-39.436a13.945 13.945 0 0 0 2.2-16.78z"/><path class="cls-2" d="M86.155 115.973V199.2l-29.689-29.693v-49.124c-.58-37.061 23.809-63.188 57.8-63.188a56.8 56.8 0 0 1 56.8 56.8c0 36.72-34.21 63.488-69.581 55.359v-30.239c18.476 9.414 40.958-3.916 40.958-25.122a28.177 28.177 0 0 0-28.178-28.177c-16.795 0-28.734 13.684-28.11 30.157z" id="letterP"/><path class="cls-3" d="M270.185 124.825v15.762h7.92q5 0 7.112 1.922t2.114 6.382q0 4.537-2.152 6.535t-7.074 2H251.5q-5.074 0-7.266-2t-2.191-6.535q0-4.075 2.075-6.189a8.147 8.147 0 0 1 6.075-2.115h1.307V83.229h-1.3a8 8 0 0 1-6.036-2.191 8.658 8.658 0 0 1-2.114-6.267q0-4.458 2.229-6.5t7.228-2.037h31.754q18.837 0 28.488 7.227t9.649 21.3q0 14.84-9.611 22.452t-28.526 7.611zm0-41.6v24.3H281.1q9.072 0 13.648-3.075t4.575-9.227a10.017 10.017 0 0 0-4.728-8.881q-4.73-3.112-13.5-3.113zM366.757 83.229v57.358h34.984V126.9q0-5.305 1.883-7.535t6.267-2.23q4.382 0 6.381 2.269t2 7.5v23.605q0 4.15-1.614 5.536t-6.459 1.383h-69.738q-5 0-7.151-2t-2.152-6.535q0-4.458 2.114-6.382t7.189-1.922h6.766v-57.36h-6.766q-5 0-7.151-2t-2.152-6.459q0-4.458 2.268-6.5t7.189-2.037h32.754q4.92 0 7.189 2.037t2.268 6.5q0 4.461-2.229 6.459t-7.228 2zM469.556 63.7q18.914 0 31.139 13.532t12.225 34.523q0 21.144-12.148 34.6t-31.216 13.456q-18.838 0-31.14-13.571t-12.3-34.483q0-21.066 12.187-34.562T469.556 63.7zm0 17.838a18.035 18.035 0 0 0-15.57 8q-5.65 8-5.651 22.221t5.689 22.3a19.076 19.076 0 0 0 31.14.039q5.69-8.034 5.689-22.335 0-14.224-5.651-22.221a18.106 18.106 0 0 0-15.646-8.004zM552.747 83.229l12 25.066L576.2 83.229h-.307a6.486 6.486 0 0 1-5.267-2.153q-1.808-2.152-1.808-6.3 0-4.612 1.884-6.573t6.421-1.961h17.53q5.151 0 7.3 1.961t2.153 6.573q0 4.152-2.114 6.3a8.191 8.191 0 0 1-6.112 2.153h-1.231l-20.682 38.443v18.915h10.072q5.226 0 7.419 1.96t2.191 6.344q0 4.46-2.306 6.5t-7.458 2.037h-39.827q-5.151 0-7.38-2t-2.23-6.535q0-4.536 2.152-6.421t7.458-1.883h10.073V123.9l-21.836-40.671h-1.307a8.056 8.056 0 0 1-6.074-2.153q-2.076-2.152-2.076-6.3 0-4.612 2.153-6.573t7.3-1.961h20.144q4.538 0 6.5 2t1.961 6.535a9.62 9.62 0 0 1-1.806 6.267 6.433 6.433 0 0 1-5.267 2.191zM684.379 109.063q8.38 3.076 12.3 8.419t3.92 13.648a24.77 24.77 0 0 1-3.382 12.763 26.424 26.424 0 0 1-9.689 9.457 27.462 27.462 0 0 1-8.265 3.114 66.721 66.721 0 0 1-12.956.961h-40.132q-5.074 0-7.266-2t-2.191-6.535q0-4.075 2.092-6.189t6.124-2.115h1.318V83.229h-1.318a8.163 8.163 0 0 1-6.124-2.153q-2.092-2.152-2.092-6.3 0-4.458 2.23-6.5t7.227-2.037h35.369q16.221 0 24.642 6.305T694.605 91a21.176 21.176 0 0 1-2.576 10.571 19.916 19.916 0 0 1-7.65 7.492zm-39.212-26.3v19.376h10.379q9.457 0 13.341-2.229t3.882-7.535q0-5-3.5-7.305t-11.34-2.307zm0 34.83v23.451H656.7q12.225 0 17.224-2.691t5-9q0-6.381-4.767-9.072t-16.688-2.681zM762.959 83.229v57.358h12.917q5.227 0 7.5 1.96t2.269 6.344q0 4.46-2.307 6.5t-7.458 2.037H730.2q-5.229 0-7.5-2t-2.269-6.535q0-4.458 2.231-6.382t7.534-1.922h12.917v-57.36H730.2q-5.229 0-7.5-2t-2.269-6.459q0-4.534 2.231-6.458t7.538-1.922h45.672q5.458 0 7.611 1.923t2.154 6.458q0 4.461-2.23 6.459t-7.535 2zM837.463 140.433H863.3v-12.456q0-5.075 2.114-7.419t6.729-2.345q4.073 0 6.112 2.191t2.037 6.65v.923l-.769 19.837q-.307 6.846-2.037 8.228t-7.112 1.383h-50.826a9.18 9.18 0 0 1-6.228-2 6.756 6.756 0 0 1-2.306-5.381 11.5 11.5 0 0 1 .576-3.5 14.117 14.117 0 0 1 1.5-3.268l41.442-60.2H830.7l-.462 10.918q-.23 5.306-2.267 7.535t-6.575 2.229q-4.075 0-6.112-2.229t-2.038-6.612v-.923l.769-18.3q.308-6.765 1.883-8.111t7.267-1.346h48.975a8.93 8.93 0 0 1 6.189 2.037 6.848 6.848 0 0 1 2.268 5.344 13.264 13.264 0 0 1-.539 3.652 12.817 12.817 0 0 1-1.46 3.345z"/></g></svg>