<svg xmlns="http://www.w3.org/2000/svg" viewBox="0 0 621.19 209.78"><defs><style>.cls-1,.cls-3{fill:#333;}.cls-1,.cls-2{fill-rule:evenodd;}.cls-2{fill:#fff;}</style></defs><title>Artboard 2</title><g id="logo"><path class="cls-1" d="M207.93,97.94a14.07,14.07,0,0,0-2.21-2.88L160.39,49.73,114.71,4.05a13.94,13.94,0,0,0-19.65,0l-66,66-25,25a13.94,13.94,0,0,0,0,19.66l24.81,24.81,66.2,66.19a13.92,13.92,0,0,0,19.65,0l51.58-51.57,39.43-39.43A14,14,0,0,0,207.93,97.94Z"/><g id="letterP"><path class="cls-2" d="M76.78,106.87v83.22L47.09,160.4V111.28c-.58-37.06,23.81-63.19,57.8-63.19a56.8,56.8,0,0,1,56.8,56.8c0,36.72-34.21,63.49-69.58,55.36V130c18.47,9.41,41-3.92,41-25.12a28.18,28.18,0,0,0-28.17-28.18C88.09,76.71,76.15,90.39,76.78,106.87Z"/></g></g><g id="Layer_3" data-name="Layer 3"><path class="cls-3" d="M284.74,112.14h-20v30.53q0,6.56-3.09,9.94a10.88,10.88,0,0,1-15.74,0q-3-3.34-3-9.82V59.69q0-7.21,3.31-10.3t10.52-3.09h28q12.43,0,19.13,1.91a28.6,28.6,0,0,1,11.44,6.11,27.56,27.56,0,0,1,7.32,10.45,36.7,36.7,0,0,1,2.5,13.9q0,16.49-10.15,25T284.74,112.14Zm-5.29-49.43H264.73V95.66h14.72a44.28,44.28,0,0,0,12.91-1.61,15.13,15.13,0,0,0,7.91-5.3A15.85,15.85,0,0,0,303,79.11a16.31,16.31,0,0,0-4.2-11.62Q294.1,62.71,279.45,62.71Z"/><path class="cls-3" d="M364.78,57.7v78.5h44.29q5.3,0,8.13,2.57a8.39,8.39,0,0,1,2.83,6.48,8.19,8.19,0,0,1-2.79,6.44q-2.81,2.46-8.17,2.46H356.32q-7.12,0-10.26-3.16t-3.13-10.23V57.7q0-6.62,3-9.93a10,10,0,0,1,7.84-3.31,10.41,10.41,0,0,1,8,3.27Q364.79,51,364.78,57.7Z"/><path class="cls-3" d="M474.33,44.46q16.77,0,28.8,6.81a44,44,0,0,1,18.2,19.34q6.18,12.56,6.18,29.47a71.94,71.94,0,0,1-3.38,22.73A49.22,49.22,0,0,1,514,140.54,44.42,44.42,0,0,1,497.35,152a60.2,60.2,0,0,1-22.58,4,59.55,59.55,0,0,1-22.66-4.08,45,45,0,0,1-16.7-11.52,49.06,49.06,0,0,1-10.12-17.87,72.25,72.25,0,0,1-3.42-22.59,69.73,69.73,0,0,1,3.57-22.81,48.81,48.81,0,0,1,10.34-17.65,44.66,44.66,0,0,1,16.48-11.15A59.41,59.41,0,0,1,474.33,44.46Zm31,55.47q0-11.84-3.82-20.52a28.67,28.67,0,0,0-10.93-13.14,30.07,30.07,0,0,0-16.29-4.45,29.44,29.44,0,0,0-12.11,2.47,26.52,26.52,0,0,0-9.56,7.17,34.43,34.43,0,0,0-6.33,12A54.51,54.51,0,0,0,444,99.93a55.94,55.94,0,0,0,2.31,16.63,34.17,34.17,0,0,0,6.55,12.32,27.57,27.57,0,0,0,9.71,7.32A30.64,30.64,0,0,0,490,134.43q7-4.19,11.18-12.94T505.37,99.93Z"/><path class="cls-3" d="M564.52,142.67V108.46L538.18,67.63a86.31,86.31,0,0,1-4.89-8.6,13.1,13.1,0,0,1-1.44-5.37,8.59,8.59,0,0,1,2.91-6.48,10.12,10.12,0,0,1,7.17-2.72c3,0,5.26.85,6.81,2.54a76.28,76.28,0,0,1,7,10.11l20.16,32.74,20.38-32.74L599.32,52a31.62,31.62,0,0,1,2.75-3.86,11.19,11.19,0,0,1,3.35-2.76,9.61,9.61,0,0,1,4.49-1,9.47,9.47,0,0,1,6.88,2.69,8.42,8.42,0,0,1,2.76,6.21,13,13,0,0,1-1.4,5.74,76,76,0,0,1-4.78,7.95l-27,41.41v34.21q0,6.71-3.09,10a11.06,11.06,0,0,1-15.74,0C565.52,150.53,564.52,147.19,564.52,142.67Z"/></g></svg>