<svg xmlns="http://www.w3.org/2000/svg" width="299.993" height="90.474" viewBox="0 0 126 38">
  <metadata><?xpacket begin="﻿" id="W5M0MpCehiHzreSzNTczkc9d"?>
<x:xmpmeta xmlns:x="adobe:ns:meta/" x:xmptk="Adobe XMP Core 5.6-c140 79.160451, 2017/05/06-01:08:21        ">
   <rdf:RDF xmlns:rdf="http://www.w3.org/1999/02/22-rdf-syntax-ns#">
      <rdf:Description rdf:about=""/>
   </rdf:RDF>
</x:xmpmeta>
                                                                                                    
                                                                                                    
                                                                                                    
                                                                                                    
                                                                                                    
                                                                                                    
                                                                                                    
                                                                                                    
                                                                                                    
                                                                                                    
                                                                                                    
                                                                                                    
                                                                                                    
                                                                                                    
                                                                                                    
                                                                                                    
                                                                                                    
                                                                                                    
                                                                                                    
                                                                                                    
                           
<?xpacket end="w"?></metadata>
<defs>
    <style>
      .cls-1 {
        fill: #333;
        fill-rule: evenodd;
      }

      .cls-2 {
        fill: none;
        stroke: #333;
        stroke-width: 2px;
      }
    </style>
  </defs>
  <path id="LOY" class="cls-1" d="M70.313,22.845H69.269a14.809,14.809,0,0,1-3.132,5.075c-1.476,1.332-3.132,1.98-6.119,1.98-2.34,0-3.06-.54-3.06-2.088V11.11c0-2.952.468-3.42,3.6-3.564v-0.9l-12.526.036v0.9c2.448,0.144,3.1.648,3.1,2.7V27.488c0,1.908-.468,2.3-3.1,2.628v0.9H68.8ZM98.9,18.957c0-7.451-5.327-12.814-12.562-12.814-7.487,0-12.922,5.183-12.922,12.85,0,7.451,5.255,12.706,12.706,12.706S98.9,26.444,98.9,18.957Zm-6.371.252c0,7.415-2.2,11.3-6.335,11.3-4.1,0-6.407-3.78-6.407-11.375,0-7.559,2.268-11.806,6.227-11.806C90.221,7.331,92.525,11.542,92.525,19.209ZM124.277,6.683h-7.919v0.9c2.448,0.18,3.024.468,3.024,1.512a9.023,9.023,0,0,1-1.476,3.672l-3.924,6.407-4.319-8.351A8.024,8.024,0,0,1,108.8,8.7c0-.828.5-0.936,1.944-1.044l0.972-.072v-0.9H99.656v0.9a3.807,3.807,0,0,1,2.988,2.124l6.479,11.806v4.9c0,2.7-.36,3.456-3.348,3.707v0.9h12.491v-0.9c-2.844-.252-3.312-0.72-3.312-3.527V20.181l6.875-11.195a3.041,3.041,0,0,1,2.448-1.4v-0.9Z"/>
  <path id="P" class="cls-1" d="M10.924,6.683v0.9c2.52,0.216,3.024.72,3.024,3.528V26.48c0,1.836-.216,2.844-1.4,3.312a5.555,5.555,0,0,1-1.62.324v0.9H22.91v-0.9c-2.844-.36-3.132-0.684-3.132-3.1V20.109c4.751-.036,5.975-0.144,7.523-0.72,2.988-1.116,4.643-3.312,4.643-6.191,0-4.391-3.672-6.515-9.683-6.515H10.924ZM19.779,9.2c0-.828.612-1.26,1.8-1.26,2.988,0,4.176,1.656,4.176,5.651s-1.476,5.219-5.975,5.255V9.2Z"/>
  <rect class="cls-2" x="1" y="1" width="40" height="36"/>
</svg>
