<svg xmlns="http://www.w3.org/2000/svg" viewBox="0 0 603.738 209.778"><defs><style>.cls-1{fill:#3498db;}.cls-1,.cls-2{fill-rule:evenodd;}.cls-2{fill:#fff;}.cls-3{fill:#333;}</style></defs><title>Artboard 2</title><g id="logo"><path class="cls-1" d="M207.932,97.936a13.637,13.637,0,0,0-2.207-2.873L160.4,49.732,114.714,4.054a13.933,13.933,0,0,0-19.65,0L29.091,70.023,4.052,95.063a13.929,13.929,0,0,0-3.1,14.9,13.762,13.762,0,0,0,3.1,4.755l24.816,24.816,66.2,66.192a13.931,13.931,0,0,0,19.65,0l51.577-51.574,39.434-39.434A13.948,13.948,0,0,0,207.932,97.936Z"/><g id="letterP"><path class="cls-2" d="M76.785,106.867v83.224L47.1,160.4V111.278c-.58-37.061,23.808-63.188,57.8-63.188a56.8,56.8,0,0,1,56.8,56.8c0,36.72-34.21,63.488-69.582,55.359V130.01c18.476,9.414,40.959-3.916,40.959-25.122a28.177,28.177,0,0,0-28.178-28.177C88.1,76.711,76.16,90.391,76.785,106.867Z"/></g></g><g id="Layer_3" data-name="Layer 3"><path class="cls-3" d="M269.815,117.959v15.762h7.919q5,0,7.113,1.923t2.114,6.382q0,4.536-2.153,6.535t-7.074,2h-26.6q-5.075,0-7.266-2t-2.191-6.535q0-4.076,2.076-6.19a8.143,8.143,0,0,1,6.074-2.115h1.307V76.364h-1.307a8,8,0,0,1-6.035-2.192,8.655,8.655,0,0,1-2.115-6.266q0-4.458,2.23-6.5t7.227-2.037h31.755q18.837,0,28.487,7.227t9.649,21.3q0,14.84-9.611,22.451t-28.525,7.611Zm0-41.595v24.3h10.918q9.072,0,13.648-3.076t4.575-9.226a10.016,10.016,0,0,0-4.729-8.881q-4.728-3.113-13.494-3.113Z"/><path class="cls-3" d="M366.386,76.364v57.357h34.985V120.036q0-5.306,1.882-7.536t6.267-2.229q4.383,0,6.382,2.269t2,7.5v23.6q0,4.152-1.614,5.536t-6.459,1.384H340.09q-5,0-7.15-2t-2.153-6.535q0-4.46,2.114-6.382t7.189-1.923h6.766V76.364H340.09q-5,0-7.15-2t-2.153-6.459q0-4.458,2.268-6.5t7.189-2.037H373q4.92,0,7.189,2.037t2.269,6.5q0,4.459-2.23,6.459t-7.228,2Z"/><path class="cls-3" d="M469.185,56.834q18.913,0,31.14,13.533t12.224,34.522q0,21.146-12.147,34.6t-31.217,13.456q-18.839,0-31.14-13.571t-12.3-34.484q0-21.066,12.186-34.561T469.185,56.834Zm0,17.838a18.033,18.033,0,0,0-15.569,8q-5.652,8-5.652,22.221t5.69,22.3a19.077,19.077,0,0,0,31.139.039q5.69-8.034,5.69-22.336,0-14.223-5.652-22.221A18.1,18.1,0,0,0,469.185,74.672Z"/><path class="cls-3" d="M552.376,76.364l12,25.065,11.456-25.065h-.308a6.484,6.484,0,0,1-5.267-2.154q-1.808-2.151-1.807-6.3,0-4.613,1.884-6.573t6.42-1.961h17.531q5.15,0,7.3,1.961t2.154,6.573q0,4.15-2.115,6.3a8.187,8.187,0,0,1-6.112,2.154h-1.23L573.6,114.807v18.914H583.67q5.228,0,7.419,1.961t2.192,6.344q0,4.459-2.307,6.5t-7.458,2.037H543.688q-5.152,0-7.381-2t-2.229-6.535q0-4.538,2.152-6.421t7.458-1.884H553.76V117.037L531.924,76.364h-1.306a8.055,8.055,0,0,1-6.075-2.154q-2.075-2.151-2.076-6.3,0-4.613,2.154-6.573t7.3-1.961h20.145q4.536,0,6.5,2t1.961,6.535a9.617,9.617,0,0,1-1.807,6.266,6.433,6.433,0,0,1-5.266,2.192Z"/></g></svg>