<svg xmlns="http://www.w3.org/2000/svg" width="299.989" height="78.258" viewBox="0 0 115 30">
  <metadata><?xpacket begin="﻿" id="W5M0MpCehiHzreSzNTczkc9d"?>
<x:xmpmeta xmlns:x="adobe:ns:meta/" x:xmptk="Adobe XMP Core 5.6-c140 79.160451, 2017/05/06-01:08:21        ">
   <rdf:RDF xmlns:rdf="http://www.w3.org/1999/02/22-rdf-syntax-ns#">
      <rdf:Description rdf:about=""/>
   </rdf:RDF>
</x:xmpmeta>
                                                                                                    
                                                                                                    
                                                                                                    
                                                                                                    
                                                                                                    
                                                                                                    
                                                                                                    
                                                                                                    
                                                                                                    
                                                                                                    
                                                                                                    
                                                                                                    
                                                                                                    
                                                                                                    
                                                                                                    
                                                                                                    
                                                                                                    
                                                                                                    
                                                                                                    
                                                                                                    
                           
<?xpacket end="w"?></metadata>
<defs>
    <style>
      .cls-1 {
        fill: #f8f9fa;
        fill-rule: evenodd;
      }
    </style>
  </defs>
  <path id="Rush." class="cls-1" d="M27.031,26.758v-0.9a1.959,1.959,0,0,1-1.584-.792L18.284,14.915a8.753,8.753,0,0,0,4.032-2.052,5.929,5.929,0,0,0,1.62-4.248c0-4.139-3.636-6.191-10.655-6.191H2.194v0.9c2.664,0.18,3.168.792,3.168,3.6V22.438c0,2.844-.36,3.1-3.168,3.419v0.9H14.36v-0.9c-2.808-.36-3.168-0.684-3.168-3.312V15.491H12.2l7.451,11.267h7.379ZM11.193,5.269c0-1.188.5-1.62,1.908-1.62,3.348,0,4.679,1.512,4.679,5.327,0,4.391-1.872,5.327-6.587,5.363V5.269ZM51.4,2.425H43.519v0.9c2.664,0.216,3.492.936,3.492,3.564v10.8c0,5.327-2.124,7.991-6.335,7.991-3.492,0-5.255-2.268-5.255-7.271V6.96c0-2.952.612-3.42,3.419-3.636v-0.9H26.745v0.9c2.52,0.252,2.952.54,2.952,3.456V18.443c0,3.491.828,5.435,2.88,7.055a10.6,10.6,0,0,0,6.659,1.944,10.886,10.886,0,0,0,6.623-1.98c1.764-1.4,2.736-4.175,2.736-7.775V6.384c0-2.124.5-2.7,2.808-3.06v-0.9ZM69.583,9.7V1.849H68.5c-0.252.972-.5,1.224-1.152,1.224a5.283,5.283,0,0,1-1.512-.36,11.187,11.187,0,0,0-4.212-.828c-4.9,0-7.883,2.664-7.883,7.235,0,3.636,2.088,5.615,6.155,7.559a33.327,33.327,0,0,1,4.391,2.34,3.987,3.987,0,0,1,2.052,3.168c0,2.484-1.764,4.068-4.535,4.068a6.344,6.344,0,0,1-5.183-2.592,11.883,11.883,0,0,1-2.16-5.147H53.421v8.927h1.044c0.216-.936.5-1.224,1.08-1.224a5.713,5.713,0,0,1,1.476.36,13.341,13.341,0,0,0,4.679.864c5.327,0,8.927-3.132,8.927-7.667A7.279,7.279,0,0,0,66.7,13.44c-1.836-1.008-3.563-1.836-5.327-2.772-2.88-1.512-3.707-2.34-3.707-4.1C57.668,4.513,59.144,3,61.628,3a6.1,6.1,0,0,1,4.427,2.016A9.935,9.935,0,0,1,68.575,9.7h1.008ZM99.5,26.758v-0.9c-2.592-.324-3.168-0.72-3.168-2.628V5.988c0-1.944.72-2.484,3.168-2.664v-0.9h-12.2v0.9c2.52,0.18,3.2.648,3.2,2.664v7.343H81.824V5.988c0-2.016.684-2.484,3.2-2.664v-0.9H72.933v0.9c2.412,0.216,3.06.684,3.06,2.664V23.23c0,1.908-.54,2.3-3.06,2.628v0.9H85.027v-0.9c-2.628-.288-3.2-0.72-3.2-2.628V15.023H90.5V23.23c0,1.836-.576,2.34-3.2,2.628v0.9H99.5Zm13.783,0V19.522h-7.236v7.236h7.236Z"/>
</svg>
