<svg xmlns="http://www.w3.org/2000/svg" viewBox="0 0 871.227 209.778"><defs><style>.cls-1{fill:#3498db;fill-rule:evenodd;}.cls-2{fill:#333;}</style></defs><title>logo-dark</title><g id="logo"><path class="cls-1" d="M217.3,106.819a13.6,13.6,0,0,0-2.207-2.873L169.768,58.615,124.085,12.937a13.933,13.933,0,0,0-19.65,0L38.462,78.906l-25.039,25.04a13.928,13.928,0,0,0-3.1,14.9,13.765,13.765,0,0,0,3.1,4.755l24.816,24.817,18.227,18.226V120.161c-.58-37.061,23.809-63.188,57.8-63.188a56.8,56.8,0,0,1,56.8,56.8c0,36.72-34.21,63.488-69.581,55.359V138.893c18.476,9.414,40.958-3.916,40.958-25.122a28.177,28.177,0,0,0-28.178-28.177c-16.792,0-28.731,13.68-28.107,30.157v80.578l18.28,18.279a13.933,13.933,0,0,0,19.65,0l51.577-51.575L215.1,123.6A13.945,13.945,0,0,0,217.3,106.819Z" transform="translate(-9.371 -8.883)"/></g><g id="Layer_3" data-name="Layer 3"><path class="cls-2" d="M270.185,124.6v15.762h7.92q5,0,7.112,1.922t2.114,6.382q0,4.537-2.152,6.535t-7.074,2H251.5q-5.074,0-7.266-2t-2.191-6.535q0-4.074,2.075-6.189a8.147,8.147,0,0,1,6.075-2.115H251.5V83.007H250.2a8,8,0,0,1-6.036-2.191,8.658,8.658,0,0,1-2.114-6.267q0-4.457,2.229-6.5t7.228-2.037h31.754q18.837,0,28.488,7.228t9.649,21.3q0,14.84-9.611,22.452T283.256,124.6Zm0-41.6v24.3H281.1q9.072,0,13.648-3.075T299.326,95A10.017,10.017,0,0,0,294.6,86.12q-4.73-3.113-13.5-3.113Z" transform="translate(-9.371 -8.883)"/><path class="cls-2" d="M366.757,83.007v57.358h34.984V126.679q0-5.306,1.883-7.535t6.267-2.23q4.382,0,6.381,2.269t2,7.5v23.6q0,4.15-1.614,5.536T410.2,157.2H340.461q-5,0-7.151-2t-2.152-6.535q0-4.458,2.114-6.382t7.189-1.922h6.766V83.007h-6.766q-5,0-7.151-2t-2.152-6.459q0-4.457,2.268-6.5t7.189-2.037h32.754q4.92,0,7.189,2.037t2.268,6.5q0,4.461-2.229,6.459t-7.228,2Z" transform="translate(-9.371 -8.883)"/><path class="cls-2" d="M469.556,63.478q18.914,0,31.139,13.532t12.225,34.523q0,21.144-12.148,34.6t-31.216,13.456q-18.838,0-31.14-13.571t-12.3-34.483q0-21.066,12.187-34.562T469.556,63.478Zm0,17.838a18.035,18.035,0,0,0-15.57,8q-5.65,8-5.651,22.221t5.689,22.3a19.077,19.077,0,0,0,31.14.04q5.69-8.035,5.689-22.336,0-14.225-5.651-22.221A18.106,18.106,0,0,0,469.556,81.316Z" transform="translate(-9.371 -8.883)"/><path class="cls-2" d="M552.748,83.007l12,25.066L576.2,83.007h-.308a6.485,6.485,0,0,1-5.266-2.153q-1.808-2.153-1.808-6.3,0-4.613,1.884-6.573t6.421-1.961h17.53q5.151,0,7.3,1.961t2.153,6.573q0,4.152-2.114,6.3a8.191,8.191,0,0,1-6.112,2.153h-1.231L573.97,121.451v18.914h10.072q5.226,0,7.419,1.961t2.191,6.343q0,4.459-2.306,6.5t-7.458,2.038H544.059q-5.151,0-7.38-2t-2.23-6.535q0-4.536,2.152-6.421t7.458-1.883h10.073V123.68L532.3,83.007h-1.307a8.056,8.056,0,0,1-6.074-2.153q-2.076-2.153-2.076-6.3,0-4.613,2.153-6.573t7.3-1.961H552.44q4.537,0,6.5,2t1.961,6.535a9.62,9.62,0,0,1-1.806,6.267,6.433,6.433,0,0,1-5.267,2.191Z" transform="translate(-9.371 -8.883)"/><path class="cls-2" d="M684.38,108.841q8.38,3.076,12.3,8.419t3.921,13.648a24.768,24.768,0,0,1-3.382,12.763,26.424,26.424,0,0,1-9.689,9.457,27.49,27.49,0,0,1-8.265,3.115,66.8,66.8,0,0,1-12.956.961H626.176q-5.075,0-7.266-2t-2.191-6.535q0-4.074,2.092-6.189t6.124-2.115h1.318V83.007h-1.318a8.163,8.163,0,0,1-6.124-2.153q-2.092-2.153-2.092-6.3,0-4.457,2.23-6.5t7.227-2.037h35.369q16.221,0,24.642,6.3t8.419,18.453a21.176,21.176,0,0,1-2.576,10.571A19.916,19.916,0,0,1,684.38,108.841Zm-39.212-26.3v19.376h10.379q9.457,0,13.341-2.229t3.882-7.535q0-5-3.5-7.3t-11.34-2.307Zm0,34.83v23.452H656.7q12.225,0,17.224-2.692t5-9q0-6.381-4.767-9.072t-16.684-2.692Z" transform="translate(-9.371 -8.883)"/><path class="cls-2" d="M762.96,83.007v57.358h12.917q5.227,0,7.5,1.961t2.268,6.343q0,4.459-2.306,6.5t-7.458,2.038H730.205q-5.229,0-7.5-2t-2.269-6.535q0-4.458,2.231-6.382t7.534-1.922h12.917V83.007H730.205q-5.229,0-7.5-2t-2.269-6.459q0-4.535,2.231-6.458t7.534-1.923h45.672q5.458,0,7.611,1.923t2.153,6.458q0,4.461-2.229,6.459t-7.535,2Z" transform="translate(-9.371 -8.883)"/><path class="cls-2" d="M837.464,140.211H863.3V127.755q0-5.074,2.114-7.419t6.729-2.345q4.073,0,6.112,2.191t2.037,6.65v.923l-.769,19.837q-.307,6.846-2.037,8.228t-7.112,1.384H819.549a9.181,9.181,0,0,1-6.228-2,6.754,6.754,0,0,1-2.306-5.381,11.5,11.5,0,0,1,.576-3.5,14.117,14.117,0,0,1,1.5-3.268l41.442-60.2H830.7l-.462,10.918q-.23,5.306-2.267,7.535t-6.575,2.23q-4.075,0-6.112-2.23t-2.038-6.612v-.923l.769-18.3q.307-6.765,1.883-8.111t7.267-1.346h48.978a8.93,8.93,0,0,1,6.189,2.037A6.85,6.85,0,0,1,880.6,73.4a13.259,13.259,0,0,1-.539,3.652,12.817,12.817,0,0,1-1.46,3.345Z" transform="translate(-9.371 -8.883)"/></g></svg>